<?xml version="1.0" encoding="UTF-8" standalone="no"?>
<!-- Created with Inkscape (http://www.inkscape.org/) -->

<svg
   xmlns:dc="http://purl.org/dc/elements/1.1/"
   xmlns:cc="http://creativecommons.org/ns#"
   xmlns:rdf="http://www.w3.org/1999/02/22-rdf-syntax-ns#"
   xmlns:svg="http://www.w3.org/2000/svg"
   xmlns="http://www.w3.org/2000/svg"
   xmlns:xlink="http://www.w3.org/1999/xlink"
   xmlns:sodipodi="http://sodipodi.sourceforge.net/DTD/sodipodi-0.dtd"
   xmlns:inkscape="http://www.inkscape.org/namespaces/inkscape"
   width="48"
   height="48"
   id="svg2"
   version="1.1"
   inkscape:version="0.48.4 r9939"
   inkscape:export-filename="/home/kamila/projects/anotherkamila.github.com/projects/spevnik/icon.png"
   inkscape:export-xdpi="90"
   inkscape:export-ydpi="90"
   sodipodi:docname="New document 1">
  <defs
     id="defs4">
    <linearGradient
       id="linearGradient3995">
      <stop
         style="stop-color:#000000;stop-opacity:0;"
         offset="0"
         id="stop3997" />
      <stop
         id="stop4003"
         offset="0.35437328"
         style="stop-color:#000000;stop-opacity:1;" />
      <stop
         style="stop-color:#000000;stop-opacity:0;"
         offset="1"
         id="stop3999" />
    </linearGradient>
    <linearGradient
       inkscape:collect="always"
       xlink:href="#linearGradient3995"
       id="linearGradient4001"
       x1="0.072980903"
       y1="1036.9283"
       x2="48.03997"
       y2="1036.9283"
       gradientUnits="userSpaceOnUse" />
    <linearGradient
       inkscape:collect="always"
       xlink:href="#linearGradient3995"
       id="linearGradient4007"
       gradientUnits="userSpaceOnUse"
       x1="0.072980903"
       y1="1036.9283"
       x2="48.03997"
       y2="1036.9283"
       gradientTransform="translate(0,-6)" />
    <linearGradient
       inkscape:collect="always"
       xlink:href="#linearGradient3995"
       id="linearGradient4011"
       gradientUnits="userSpaceOnUse"
       gradientTransform="translate(0,-12)"
       x1="0.072980903"
       y1="1036.9283"
       x2="48.03997"
       y2="1036.9283" />
    <linearGradient
       inkscape:collect="always"
       xlink:href="#linearGradient3995"
       id="linearGradient4015"
       gradientUnits="userSpaceOnUse"
       gradientTransform="translate(0,-18)"
       x1="0.072980903"
       y1="1036.9283"
       x2="48.03997"
       y2="1036.9283" />
    <linearGradient
       inkscape:collect="always"
       xlink:href="#linearGradient3995"
       id="linearGradient4019"
       gradientUnits="userSpaceOnUse"
       gradientTransform="translate(0,-24)"
       x1="0.072980903"
       y1="1036.9283"
       x2="48.03997"
       y2="1036.9283" />
  </defs>
  <sodipodi:namedview
     id="base"
     pagecolor="#ffffff"
     bordercolor="#666666"
     borderopacity="1.0"
     inkscape:pageopacity="0.0"
     inkscape:pageshadow="2"
     inkscape:zoom="0.98994949"
     inkscape:cx="-100.05946"
     inkscape:cy="92.865552"
     inkscape:document-units="px"
     inkscape:current-layer="layer1"
     showgrid="true"
     inkscape:snap-bbox="false"
     inkscape:object-paths="true"
     inkscape:object-nodes="true"
     inkscape:snap-global="false"
     inkscape:window-width="1918"
     inkscape:window-height="1045"
     inkscape:window-x="0"
     inkscape:window-y="34"
     inkscape:window-maximized="0">
    <inkscape:grid
       type="xygrid"
       id="grid4030"
       empspacing="5"
       visible="true"
       enabled="true"
       snapvisiblegridlinesonly="true" />
  </sodipodi:namedview>
  <metadata
     id="metadata7">
    <rdf:RDF>
      <cc:Work
         rdf:about="">
        <dc:format>image/svg+xml</dc:format>
        <dc:type
           rdf:resource="http://purl.org/dc/dcmitype/StillImage" />
        <dc:title></dc:title>
      </cc:Work>
    </rdf:RDF>
  </metadata>
  <g
     inkscape:label="Layer 1"
     inkscape:groupmode="layer"
     id="layer1"
     transform="translate(0,-1004.3622)">
    <g
       style="fill:#000000"
       id="clef"
       transform="translate(-203.68971,491.17333)">
      <path
         inkscape:connector-curvature="0"
         d="m 225.4624,521.10094 c 0.30436,3.12626 -2.01982,5.6563 -4.07765,7.70149 -0.93488,0.89716 -0.15496,0.14819 -0.64369,0.5943 -0.10215,-0.47963 -0.29856,-1.73157 -0.28021,-2.11043 0.13049,-2.6939 2.31983,-6.58747 4.23787,-8.02354 0.30891,0.57671 0.56363,0.62311 0.76368,1.83818 z m 0.651,16.14203 c -1.23253,-0.90596 -2.85036,-1.14344 -4.334,-0.88501 -0.19134,-1.25466 -0.38267,-2.50932 -0.57401,-3.76398 2.35104,-2.32904 4.90659,-5.03189 5.04107,-8.53907 0.0587,-2.23194 -0.27625,-4.67135 -1.67875,-6.48357 -1.70014,0.12823 -2.8992,2.15596 -3.8016,3.4165 -1.48891,2.6705 -1.14141,5.91692 -0.57004,8.79646 -0.80939,0.95172 -1.92953,1.74344 -2.72737,2.7338 -2.3561,2.3087 -4.40847,5.43025 -4.00464,8.87835 0.18336,3.33399 2.58943,6.43437 5.87022,7.22732 1.2457,0.31422 2.56395,0.34521 3.82412,0.0982 0.21994,2.25009 1.02706,4.62966 0.0925,6.8131 -0.70074,1.59858 -2.78755,3.00471 -4.3325,2.1919 -0.59937,-0.31533 -0.11367,-0.0508 -0.47805,-0.25127 1.06986,-0.25731 1.99965,-1.0365 2.26007,-1.56492 0.83778,-1.4642 -0.39984,-3.63919 -2.1554,-3.35881 -2.262,0.0468 -3.19046,3.14078 -1.73562,4.685 1.34679,1.52039 3.833,1.31219 5.43011,0.31801 1.81297,-1.17995 2.03921,-3.54319 1.83214,-5.562 -0.0695,-0.6774 -0.40233,-2.66985 -0.44353,-3.38683 0.69722,-0.24836 0.20926,-0.0591 1.19278,-0.44852 2.66022,-1.05336 4.35751,-4.25882 3.59413,-7.12278 -0.31819,-1.46882 -1.04369,-2.91369 -2.30163,-3.79187 z m 0.561,5.75702 c 0.21404,1.99169 -1.05371,4.32147 -3.07902,4.9599 -0.13626,-0.79497 -0.17218,-1.01081 -0.26298,-1.47413 -0.48222,-2.46072 -0.744,-4.98787 -1.116,-7.4818 1.62492,-0.16805 3.45763,0.54322 4.0229,2.18476 0.24373,0.57638 0.34226,1.19674 0.4351,1.81127 z m -5.149,5.19598 c -2.54414,0.14147 -4.99954,-1.59498 -5.63427,-4.08035 -0.74901,-2.15316 -0.52831,-4.63026 0.82067,-6.50474 1.11514,-1.7019 2.60651,-3.10437 4.0286,-4.54292 0.183,1.12733 0.366,2.25465 0.54899,3.38198 -2.99063,0.78214 -5.0046,4.72526 -3.21499,7.45102 0.53244,0.76426 1.97647,2.22315 2.7655,1.634 -1.10198,-0.68237 -2.00332,-1.85844 -1.80949,-3.2266 -0.0821,-1.28246 1.36985,-2.91061 2.65129,-3.19833 0.43841,2.86925 0.94128,6.07369 1.3797,8.94294 -0.50539,0.10002 -1.02115,0.14297 -1.536,0.143 z"
         id="path3911" />
    </g>
    <path
       inkscape:connector-curvature="0"
       id="path3968"
       d="M 0.32044275,1043.4312 C 18.25065,1031.5575 17.740472,1049.3658 47.79251,1030.4254"
       style="fill:none;stroke:url(#linearGradient4001);stroke-width:1px;stroke-linecap:butt;stroke-linejoin:miter;stroke-opacity:1"
       sodipodi:nodetypes="cc" />
    <path
       sodipodi:nodetypes="cc"
       style="fill:none;stroke:url(#linearGradient4007);stroke-width:1px;stroke-linecap:butt;stroke-linejoin:miter;stroke-opacity:1"
       d="M 0.32044275,1037.4312 C 18.25065,1025.5575 17.740472,1043.3658 47.79251,1024.4254"
       id="path4005"
       inkscape:connector-curvature="0" />
    <path
       inkscape:connector-curvature="0"
       id="path4009"
       d="M 0.32044275,1031.4312 C 18.25065,1019.5575 17.740472,1037.3658 47.79251,1018.4254"
       style="fill:none;stroke:url(#linearGradient4011);stroke-width:1px;stroke-linecap:butt;stroke-linejoin:miter;stroke-opacity:1"
       sodipodi:nodetypes="cc" />
    <path
       sodipodi:nodetypes="cc"
       style="fill:none;stroke:url(#linearGradient4015);stroke-width:1px;stroke-linecap:butt;stroke-linejoin:miter;stroke-opacity:1"
       d="M 0.32044275,1025.4312 C 18.25065,1013.5575 17.740472,1031.3658 47.79251,1012.4254"
       id="path4013"
       inkscape:connector-curvature="0" />
    <path
       inkscape:connector-curvature="0"
       id="path4017"
       d="M 0.32044275,1019.4312 C 18.25065,1007.5575 17.740472,1025.3658 47.79251,1006.4254"
       style="fill:none;stroke:url(#linearGradient4019);stroke-width:1px;stroke-linecap:butt;stroke-linejoin:miter;stroke-opacity:1"
       sodipodi:nodetypes="cc" />
    <path
       style="fill:#ffffff;stroke:#ffffff;stroke-width:0;stroke-linecap:butt;stroke-linejoin:miter;stroke-miterlimit:4;stroke-opacity:1;stroke-dasharray:none"
       d="m 13.943391,1044.9714 c -0.209794,0.014 -0.417795,0.1333 -0.572348,0.4585 -0.557987,1.1739 1.482354,2.2453 1.482354,2.2453 0,0 2.026923,-1.0768 1.471545,-2.2453 -0.443831,-0.9338 -1.306433,-0.181 -1.479375,-0.015 -0.118874,-0.1126 -0.514709,-0.4636 -0.902176,-0.443 z"
       id="path4035"
       inkscape:connector-curvature="0"
       sodipodi:nodetypes="cccscc" />
  </g>
</svg>
